<!-- Generated by IcoMoon.io -->
<svg version="1.1" xmlns="http://www.w3.org/2000/svg" width="12" height="12" viewBox="0 0 12 12">
<title>cross</title>
<path fill="#fff" d="M11.891 9.641c-0-0-0-0-0-0l-3.64-3.64 3.64-3.64c0-0 0-0 0-0 0.039-0.039 0.068-0.085 0.086-0.134 0.050-0.133 0.021-0.289-0.086-0.396l-1.72-1.72c-0.107-0.107-0.263-0.136-0.396-0.086-0.049 0.018-0.095 0.046-0.134 0.086 0 0-0 0-0 0l-3.64 3.64-3.64-3.64c-0-0-0-0-0-0-0.039-0.039-0.085-0.067-0.134-0.086-0.133-0.050-0.289-0.021-0.396 0.086l-1.72 1.72c-0.107 0.107-0.136 0.263-0.086 0.396 0.018 0.049 0.047 0.095 0.086 0.134 0 0 0 0 0 0l3.64 3.64-3.64 3.64c-0 0-0 0-0 0-0.039 0.039-0.068 0.085-0.086 0.134-0.050 0.133-0.021 0.289 0.086 0.396l1.72 1.72c0.107 0.107 0.263 0.136 0.396 0.086 0.049-0.018 0.095-0.047 0.134-0.086 0-0 0-0 0-0l3.64-3.64 3.64 3.64c0 0 0 0 0 0 0.039 0.039 0.085 0.068 0.134 0.086 0.133 0.050 0.289 0.021 0.396-0.086l1.72-1.72c0.107-0.107 0.136-0.263 0.086-0.396-0.018-0.049-0.047-0.095-0.086-0.134z"></path>
</svg>
